# xmcd CD database file
#
# Track frame offsets:
#	150
#	12327
#	25579
#	38688
#	52472
#	64917
#	82680
#	95130
#	109731
#	121182
#
# Disc length: 1799 seconds
#
# Revision: 2
# Processed by: cddbd v1.5.2PL0 Copyright (c) Steve Scherf et al.
# Submitted via: CDex 1.79
#
DISCID=7b07050a
DTITLE=Charlie Rich - Collections
DYEAR=1900
DGENRE=Country
TTITLE0=The Most Beautiful Girl
TTITLE1=Behind Closed Doors
TTITLE2=Spanish Eyes
TTITLE3=Every Time You Touch Me (I Get High)
TTITLE4=A Very Special Love Song
TTITLE5=My Elusive Dreams
TTITLE6=She
TTITLE7=On My Knees
TTITLE8=Set Me Free
TTITLE9=Since I Fell For You
EXTD=
EXTT0=
EXTT1=
EXTT2=
EXTT3=
EXTT4=
EXTT5=
EXTT6=
EXTT7=
EXTT8=
EXTT9=
PLAYORDER=
